<svg xmlns="http://www.w3.org/2000/svg"  viewBox="0 0 64 64" width="64px" height="64px" baseProfile="basic"><linearGradient id="2t7CMhge7myaru1lfdWGYa" x1="32.052" x2="32.052" y1="8" y2="56" gradientUnits="userSpaceOnUse"><stop offset="0" stop-color="#1a6dff"/><stop offset="1" stop-color="#c822ff"/></linearGradient><path fill="url(#2t7CMhge7myaru1lfdWGYa)" d="M37.811,56H17.14c-3.694,0-7.129-1.831-9.188-4.897c-2.062-3.07-2.456-6.947-1.057-10.372	L7.602,39H2.5c-0.347,0-0.668-0.18-0.851-0.474c-0.183-0.295-0.199-0.663-0.044-0.973l6.5-13C8.275,24.214,8.621,24,9,24	l42.001,0.002c0.551,0,0.999-0.45,0.999-1.001C52,22.449,51.551,22,50.999,22H16.91c-0.342,0-0.66-0.174-0.844-0.463	c-0.184-0.288-0.207-0.65-0.062-0.96l1.618-3.467C20.206,11.576,25.822,8,31.93,8H48.53c7.76,0,14.073,6.305,14.073,14.054	c0,1.85-0.369,3.671-1.097,5.413C58.586,34.473,51.807,39,44.237,39H15.012c0.116,1.127,1.075,2.01,2.238,2.01h23.37	c2.229,0,4.258,1.132,5.429,3.028c1.169,1.894,1.271,4.212,0.274,6.2l-0.358,0.718C44.402,54.068,41.278,56,37.811,56z M4.118,37	H9.09c0.333,0,0.645,0.166,0.83,0.442s0.222,0.627,0.096,0.936l-1.27,3.11c-1.164,2.849-0.849,5.947,0.866,8.5	C11.324,52.538,14.068,54,17.14,54h20.671c2.707,0,5.146-1.509,6.366-3.939l0.358-0.718c0.685-1.365,0.613-2.955-0.188-4.255	c-0.804-1.301-2.196-2.079-3.727-2.079H17.25c-2.344,0-4.25-1.902-4.25-4.24V38c0-0.552,0.447-1,1-1h30.237	c6.76,0,12.813-4.044,15.424-10.304c0.625-1.497,0.942-3.059,0.942-4.643C60.604,15.407,55.188,10,48.53,10H31.93	c-5.334,0-10.238,3.123-12.495,7.956L18.48,20h32.519C52.653,20,54,21.346,54,23.001c0,1.653-1.345,3-2.998,3.001L9.618,26L4.118,37	z"/><linearGradient id="2t7CMhge7myaru1lfdWGYb" x1="32.979" x2="32.979" y1="12" y2="52" gradientUnits="userSpaceOnUse"><stop offset="0" stop-color="#6dc7ff"/><stop offset="1" stop-color="#e6abff"/></linearGradient><path fill="url(#2t7CMhge7myaru1lfdWGYb)" d="M17.14,52c-2.395,0-4.533-1.14-5.867-3.127c-1.337-1.99-1.583-4.406-0.675-6.627l0.674-1.653	c0.783,2.555,3.167,4.417,5.979,4.417h23.37c1.198,0,1.815,0.79,2.024,1.129c0.209,0.338,0.638,1.241,0.104,2.306l-0.361,0.724	C41.511,50.913,39.756,52,37.811,52H17.14z M7.354,35l3.5-7l40.146,0.002C53.759,28,56,25.756,56,23.001	C56,20.244,53.757,18,50.999,18H21.66c2.073-3.672,6.012-6,10.27-6H48.53c5.555,0,10.073,4.51,10.073,10.054	c0,1.316-0.266,2.619-0.788,3.872C55.517,31.438,50.188,35,44.237,35H7.354z"/></svg>